<?xml version="1.0" encoding="UTF-8"?>
<svg width="916px" height="753px" viewBox="0 0 916 753" version="1.1" xmlns="http://www.w3.org/2000/svg" xmlns:xlink="http://www.w3.org/1999/xlink">
    <!-- Generator: Sketch 51.3 (57544) - http://www.bohemiancoding.com/sketch -->
    <title>dragonfly-rainbow</title>
    <desc>Created with Sketch.</desc>
    <defs>
        <radialGradient cx="72.3132293%" cy="91.1780826%" fx="72.3132293%" fy="91.1780826%" r="281.148922%" gradientTransform="translate(0.723132,0.911781),scale(1.000000,0.324410),rotate(-91.458626),scale(1.000000,0.644776),translate(-0.723132,-0.911781)" id="radialGradient-1">
            <stop stop-color="#A564FA" offset="0%"></stop>
            <stop stop-color="#62B7FF" offset="24.5111198%"></stop>
            <stop stop-color="#88FF7F" offset="41.9778053%"></stop>
            <stop stop-color="#FFFC36" offset="58.739699%"></stop>
            <stop stop-color="#FFCA78" offset="75.0018748%"></stop>
            <stop stop-color="#FF8080" offset="100%"></stop>
        </radialGradient>
        <radialGradient cx="108.955456%" cy="27.7500231%" fx="108.955456%" fy="27.7500231%" r="393.464142%" gradientTransform="translate(1.089555,0.277500),scale(0.279155,1.000000),rotate(-177.328375),scale(1.000000,0.644776),translate(-1.089555,-0.277500)" id="radialGradient-2">
            <stop stop-color="#A564FA" offset="0%"></stop>
            <stop stop-color="#62B7FF" offset="21.6138712%"></stop>
            <stop stop-color="#88FF7F" offset="41.8910414%"></stop>
            <stop stop-color="#FFFC36" offset="65.0496561%"></stop>
            <stop stop-color="#FFCA78" offset="80.7109711%"></stop>
            <stop stop-color="#FF8080" offset="100%"></stop>
        </radialGradient>
        <radialGradient cx="87.4039429%" cy="14.4845811%" fx="87.4039429%" fy="14.4845811%" r="94.5513154%" gradientTransform="translate(0.874039,0.144846),scale(1.000000,0.704958),rotate(99.804066),translate(-0.874039,-0.144846)" id="radialGradient-3">
            <stop stop-color="#A3FFF7" offset="0%"></stop>
            <stop stop-color="#2787B2" offset="100%"></stop>
        </radialGradient>
        <radialGradient cx="168.273474%" cy="10.2506186%" fx="168.273474%" fy="10.2506186%" r="196.025438%" gradientTransform="translate(1.682735,0.102506),scale(1.000000,0.457065),rotate(123.395495),translate(-1.682735,-0.102506)" id="radialGradient-4">
            <stop stop-color="#57538B" offset="0%"></stop>
            <stop stop-color="#44425F" offset="100%"></stop>
        </radialGradient>
        <radialGradient cx="105.741592%" cy="60.558597%" fx="105.741592%" fy="60.558597%" r="74.6427458%" gradientTransform="translate(1.057416,0.605586),scale(1.000000,0.901154),rotate(102.456365),translate(-1.057416,-0.605586)" id="radialGradient-5">
            <stop stop-color="#A3E9FF" offset="0%"></stop>
            <stop stop-color="#65C3D5" offset="100%"></stop>
        </radialGradient>
        <linearGradient x1="64.5297057%" y1="20.7545785%" x2="48.840717%" y2="84.7584781%" id="linearGradient-6">
            <stop stop-color="#80D3E7" offset="0%"></stop>
            <stop stop-color="#5CC9EC" offset="100%"></stop>
        </linearGradient>
        <radialGradient cx="115.296233%" cy="-3.97219145%" fx="115.296233%" fy="-3.97219145%" r="112.724099%" gradientTransform="translate(1.152962,-0.039722),scale(1.000000,0.864287),rotate(90.000000),translate(-1.152962,0.039722)" id="radialGradient-7">
            <stop stop-color="#57538B" offset="0%"></stop>
            <stop stop-color="#44425F" offset="100%"></stop>
        </radialGradient>
        <radialGradient cx="100%" cy="75.6998354%" fx="100%" fy="75.6998354%" r="144.962291%" gradientTransform="translate(1.000000,0.756998),scale(0.839957,1.000000),rotate(-148.053071),scale(1.000000,0.644776),translate(-1.000000,-0.756998)" id="radialGradient-8">
            <stop stop-color="#A564FA" offset="0%"></stop>
            <stop stop-color="#62B7FF" offset="24.1466546%"></stop>
            <stop stop-color="#88FF7F" offset="45.841836%"></stop>
            <stop stop-color="#FFFC36" offset="60.610354%"></stop>
            <stop stop-color="#FFCA78" offset="74.9039628%"></stop>
            <stop stop-color="#FF8080" offset="100%"></stop>
        </radialGradient>
        <radialGradient cx="105.150577%" cy="0%" fx="105.150577%" fy="0%" r="221.13843%" gradientTransform="translate(1.051506,0.000000),scale(0.519339,1.000000),rotate(156.288366),scale(1.000000,0.644776),translate(-1.051506,-0.000000)" id="radialGradient-9">
            <stop stop-color="#A564FA" offset="0%"></stop>
            <stop stop-color="#62B7FF" offset="28.1627643%"></stop>
            <stop stop-color="#88FF7F" offset="50.2941087%"></stop>
            <stop stop-color="#FFFC36" offset="64.8973129%"></stop>
            <stop stop-color="#FFCA78" offset="77.3685942%"></stop>
            <stop stop-color="#FF8080" offset="100%"></stop>
        </radialGradient>
    </defs>
    <g id="dragonfly-rainbow" stroke="none" stroke-width="1" fill="none" fill-rule="evenodd">
        <path d="M448.39305,20 C459.901314,14.5328726 473.702898,104.112866 489.797803,288.739981 L440.210507,353.345378 C422.313676,327.937962 408.386422,308.846686 398.428747,296.071549 C383.492233,276.908844 378.016041,259.313599 383.900964,241.04772 C389.785886,222.78184 434.106456,20 448.39305,20 Z" id="Path-Copy" fill-opacity="0.44" fill="url(#radialGradient-1)"></path>
        <path d="M467.397011,316.10532 C378.111038,314.63156 332.678764,314.63156 331.100187,316.10532 C328.732321,318.315959 369.075348,351.446765 373.957028,352.81113 C378.838709,354.175494 404.775006,349.888229 420.38259,348.582377 C430.787646,347.711809 446.45912,346.51542 467.397011,344.993211 L467.397011,316.10532 Z" id="Path-2" fill-opacity="0.62" fill="url(#radialGradient-2)" transform="translate(399.198506, 334.037969) rotate(24.000000) translate(-399.198506, -334.037969) "></path>
        <path d="M447.011719,310.421875 L364.219727,309.662598 C347.66862,309.837728 339.006348,310.448568 338.23291,311.495117 C337.937757,311.894494 343.692263,310.645924 355.786133,310.421875 C369.806048,310.162144 433.982422,312.516846 437.748047,313.516846 C440.258464,314.183512 443.346354,315.468262 447.011719,317.371094 L447.011719,310.421875 Z" id="Path-8" fill="#9013FE" style="mix-blend-mode: overlay;" transform="translate(392.616917, 313.516846) rotate(24.000000) translate(-392.616917, -313.516846) "></path>
        <path d="M450.206841,19.7548269 C450.206841,19.7548269 452.240283,18.3219322 458,36.6357422 C459.131865,40.2346633 461.362033,49.9586216 464.690504,65.8076172 C470.512505,91.8846201 474.408639,117.517758 476.378906,142.707031 C478.349173,167.896304 479.280927,203.986268 479.174167,250.976922 L470.525802,293.949818 C472.211807,220.972439 472.211807,169.106028 470.525802,138.350586 C469.192125,114.022152 464.89168,76.8779065 459.916992,52.3935547 C455.458352,30.4490817 450.206841,19.7548269 450.206841,19.7548269 Z" id="Path-7" fill="#9013FE" style="mix-blend-mode: overlay;"></path>
        <g id="Torso" transform="translate(399.000000, 255.000000)">
            <path d="M161.823602,396.139098 C162.329198,399.046195 162.375183,400.499743 161.961556,400.499743 C158.99599,400.499743 129.413006,363.140503 73.2126025,288.422025 C73.197618,288.514065 73.182633,288.606183 73.1676404,288.69837 L73.1675957,288.698363 C73.078945,289.243461 72.56519,289.613485 72.0200919,289.524834 C71.6829437,289.470003 71.397108,289.246869 71.2620892,288.933109 C24.0052051,179.116455 0.376763113,117.740946 0.376763113,104.806581 C0.376763113,97.2568897 26.4564061,62.5545413 78.6156921,0.699535721 L78.6157249,0.699563325 C78.8097278,0.4694978 79.0970295,0.339040863 79.3979261,0.344384179 L116.317425,1 C118.40385,5.10381325 136.329265,5.23535123 170.093671,1.39461393 C171.19116,1.26978046 172.182053,2.05826716 172.306893,3.15575523 C172.345817,3.497936 172.295722,3.84436999 172.161461,4.16150806 C136.479591,88.4453818 112.413475,145.820205 99.9631131,176.285978 C122.380882,251.93039 138.74644,308.434327 149.059789,345.797791 C149.294526,345.771116 149.532546,345.828365 149.730604,345.961514 C249.351096,412.933971 309.434042,454.88788 329.979443,471.823241 C329.319363,471.962805 331.319806,468.382717 335.98077,461.082976 C340.069143,454.679995 348.234346,489.287899 345.886122,491.018724 C344.332186,492.164096 282.978012,460.537554 161.823602,396.139098 Z" id="Combined-Shape" fill="url(#radialGradient-3)" fill-rule="nonzero"></path>
            <path d="M99.9170169,176.333366 L79.6540067,222.545571 L73.4246629,288.35038 L111.552821,338.710841 L91.6408491,308.642271 C85.2525472,297.432211 81.8492351,290.668248 81.4309128,288.35038 C81.0125905,286.032513 81.7069859,264.594689 83.5140991,224.036907 C95.2377828,194.771407 101.041885,179.941523 100.926407,179.547256 C100.810928,179.15299 100.474465,178.081693 99.9170169,176.333366 Z" id="Path-5" fill="#53C2E6" fill-rule="evenodd" style="mix-blend-mode: multiply;"></path>
            <path d="M148.871773,345.214827 L161.81839,396.348024 L183.43111,407.460626 C177.524031,401.132905 173.473585,395.923369 171.279772,391.832019 C169.085959,387.740668 162.489108,372.8879 151.48922,347.273715 L148.871773,345.214827 Z" id="Path-6" fill="#53C2E6" fill-rule="evenodd" style="mix-blend-mode: multiply;"></path>
            <path d="M332.617343,466.493423 C330.665707,469.605725 329.784136,471.389481 329.972627,471.844691 C330.452274,472.883855 338.525838,481.491308 339.203433,480.762315 C339.655163,480.276319 338.746293,473.513875 336.476822,460.474984 C336.178789,460.823859 335.789224,461.374433 335.308126,462.126705 C334.827028,462.878978 333.9301,464.33455 332.617343,466.493423 Z" id="Path-7" fill="#53C2E6" fill-rule="evenodd" style="mix-blend-mode: multiply;"></path>
            <path d="M76.1442239,3.5968032 L169.5,4 C164.06184,18.33515 160.591343,26.5340358 159.088511,28.5966575 C156.834261,31.6905899 155.201736,35.4369869 151.515611,39.9497227 C145.239425,47.6333401 140.730853,49.771696 132.541527,52.2486703 C112.107357,58.4292653 79.8424076,41.5505655 73.6554177,37.9957119 C70.6392196,36.2626974 64.6419478,33.1296793 55.6636023,28.5966575 C57.4696781,26.2569339 59.4722212,23.6764704 61.6712315,20.8552671 C63.8306299,18.0848837 68.6549607,12.3320624 76.1442239,3.5968032 Z" id="Path-8" fill="#53C2E6" fill-rule="evenodd" style="mix-blend-mode: multiply;"></path>
        </g>
        <g id="Head2" transform="translate(454.000000, 60.000000)">
            <g id="Head">
                <path d="M97.3713627,89.0305409 C104.305932,86.5539075 112.186751,86.5539075 121.01382,89.0305409 C133.194706,92.4481627 162.426547,105.025636 173.843805,110.003364 C184.997265,117.541347 180.005956,160.880651 176.350815,198.31263 C171.351935,208.850152 164.425238,216.424781 155.570721,221.036516 L115.526395,201.767851 L89.5779926,95.8151106 L97.3713627,89.0305409 Z" id="Path-3" fill="#44425F"></path>
                <path d="M139.881696,101.02458 C142.22756,101.268288 158.205971,106.402978 160.086284,108.364838 C161.966597,110.326698 171.023288,114.490703 173.256781,120.265403 C175.490274,126.040103 177.082929,130.375266 177.082929,136.314069 C177.082929,141.766868 177.512664,157.069779 177.082929,163.151392 C176.732822,168.106109 172.475643,183.341356 170.983968,184.932088 C169.492294,186.52282 161.581744,194.939932 160.086284,193.272513 C158.590824,191.605094 157.467803,185.635643 159.627739,177.716392 C161.787675,169.797142 166.7687,147.307843 163.480806,132.207414 C161.79019,124.442863 162.104509,124.608382 156.679317,117.108719 C151.553646,110.023107 135.370809,106.819799 135.087065,105.674397 C134.502996,103.316663 136.94169,100.719148 139.881696,101.02458 Z" id="Path-10-Copy" fill="url(#radialGradient-4)"></path>
                <path d="M121.495825,125.130842 C118.696706,104.363509 116.911691,87.7707463 116.140779,75.3525527 C114.98441,56.7252623 113.816199,45.788746 116.140779,40.7942004 C117.169231,38.5844879 124.895889,30.8864639 131.333407,26.4912081 C135.117533,23.9075725 140.958729,20.2540662 148.856994,15.5306891 L148.857,15.5306991 C149.330987,15.2472421 149.945016,15.4016971 150.228473,15.8756839 C150.414385,16.1865587 150.417648,16.5736656 150.237004,16.8876306 C135.236666,42.9586736 126.996065,57.8248921 125.515201,61.4862858 C123.201405,67.2070807 119.576148,82.3498332 122.841086,123.115086 C122.95715,124.564239 122.50873,125.236158 121.495825,125.130842 Z" id="Path-4-Copy" fill="#7AD0E3" transform="translate(133.018264, 69.821995) rotate(42.000000) translate(-133.018264, -69.821995) "></path>
                <path d="M45.1066914,100.583831 C61.5842365,92.3903388 95.6959048,86.3600771 102.505156,86.3600771 C109.363353,86.7929987 145.353453,104.181327 148.025168,106.363609 C157.75662,114.312355 163.345005,121.051809 164.031444,154.917303 C164.717883,188.782798 150.558191,254.744765 142.7403,257.072475 C141.623325,257.405045 133.776061,261.766473 129.710116,260.608738 C120.09941,257.872189 88.2922899,242.620723 34.2887566,214.85434 L34.2887568,214.854339 C32.0610331,213.708936 30.4114556,211.686923 29.7367275,209.274571 L7.83902273,130.983821 C6.82933843,127.373901 8.16282677,123.516162 11.1862655,121.300355 C22.0779521,113.318093 33.3847608,106.412585 45.1066914,100.583831 Z" id="Path" fill="url(#radialGradient-5)"></path>
                <path d="M82.0588275,89.9177926 C64.5481975,95.460078 53.4291233,99.6017308 48.7016047,102.342751 C43.9740862,105.083771 39.9039698,109.748827 36.4912554,116.337919 L35.2997188,135.564911 L7.49499003,136.927141 L10.2691655,125.174182 C8.55751637,124.566886 8.55751637,123.585263 10.2691655,122.229314 C20.3427306,114.249147 36.3906019,105.181718 42.1713548,102.342751 C46.8947947,100.023038 55.3020052,96.0297427 65.1486205,93.2189619 C68.6656206,92.2150113 74.3023562,91.1146215 82.0588275,89.9177926 Z" id="Path-9" fill="#53C2E6" style="mix-blend-mode: multiply;"></path>
                <path d="M5.43616668,121.434455 C7.29120191,119.262384 31.7219189,114.862582 35.4966272,115.801333 C39.2713355,116.740083 80.4090014,151.265502 82.5280782,156.132421 C83.9407961,159.377034 85.5286639,187.725564 87.2916816,241.178012 L89.2494499,242.560938 C85.5832378,246.076848 83.3427805,247.726466 82.5280782,247.50979 C41.2724219,239.821114 23.267391,227.296992 19.7245333,221.851872 C11.9437611,207.010794 -1.34939033,142.563061 0.51396648,136.811848 C2.37732329,131.060634 3.58113144,123.606527 5.43616668,121.434455 Z" id="Path-2" fill="#44425F"></path>
                <path d="M32.9076022,110.502757 C30.1084838,89.7354241 28.3234685,73.142661 27.5525563,60.7244673 C26.3961879,42.0971769 25.2279768,31.1606606 27.5525563,26.1661151 C28.5810087,23.9564025 36.3076668,16.2583785 42.7451848,11.8631227 C49.1827029,7.4678669 61.1180521,-0.579918242 62.4619077,0.541813039 C63.8057632,1.66354432 43.009273,30.4494202 40.6954769,36.170215 C38.3816808,41.8910098 30.9879256,67.7217478 34.2528633,108.487 C34.3689277,109.936153 33.9205074,110.608072 32.9076022,110.502757 Z" id="Path-4" fill="url(#linearGradient-6)"></path>
            </g>
            <path d="M8.63310706,127.202269 C5.95572019,128.454678 5.20317086,131.937202 6.91813896,133.657358 C7.75128055,134.493019 19.2129444,130.223718 27.2558624,133.657358 C35.7687711,137.291643 43.8998846,146.294186 49.3480648,152.078974 C59.9436357,163.329177 62.8306833,174.869446 65.0579722,182.770018 C67.2852611,190.67059 69.865751,204.185293 72.0063946,204.844331 C74.1470381,205.50337 76.2716368,200.426256 76.7309642,198.294463 C77.1902916,196.162671 74.7702284,165.722628 72.5184608,161.295289 C69.7545534,155.861 61.617573,149.207334 57.7246837,145.398445 C53.2437467,141.014196 47.9070872,135.80037 43.0184199,132.000819 C36.5183393,126.948853 32.3545059,123.801175 29.7323307,123.087966 C27.1101556,122.374756 10.7694235,126.202958 8.63310706,127.202269 Z" id="Path-10" fill="url(#radialGradient-7)"></path>
        </g>
        <g id="WINGS" transform="translate(29.000000, 61.000000)" fill-opacity="0.44">
            <path d="M6.0249161,0.25293065 C15.5493123,0.25293065 159.806941,83.4152808 438.797803,249.739981 C426.621938,313.173647 414.172014,350.987591 401.448031,363.181811 C396.871751,366.982634 242.49924,377.504562 205.784274,353.906914 C169.069308,330.309265 82.8950806,154.029775 42.6649825,82.8064061 C2.43488447,11.5830373 -8.26167817,0.25293065 6.0249161,0.25293065 Z" id="Combined-Shape" fill="url(#radialGradient-8)"></path>
            <path d="M409.740103,337.207143 L414.75227,341.623204 C416.332561,343.015546 416.562452,345.394778 415.277973,347.063924 C385.900518,385.239157 365.364394,410.983894 353.6696,424.298134 C317.82617,465.105012 291.004384,487.907183 284.183544,492.165961 C274.180266,498.411783 217.391793,494.294315 113.818126,479.813559 L113.818126,479.813559 C111.630267,479.507672 110.104627,477.486091 110.410515,475.298232 C110.602511,473.92498 111.492009,472.749119 112.761222,472.190745 C183.590786,441.03018 234.369734,417.751843 265.098064,402.355736 C297.247575,386.247561 344.031096,364.316747 405.448628,336.563294 L405.448628,336.563294 C406.881342,335.915877 408.560453,336.167793 409.740103,337.207143 Z" id="Path-3" fill="url(#radialGradient-9)"></path>
        </g>
        <path d="M521.443261,340.577276 C546.30194,332.468269 560.315831,329.021804 563.484934,330.237882 C566.480187,331.387248 582.465044,348.501234 611.439506,381.579839 L611.439474,381.579867 C611.803359,381.995295 611.761575,382.627053 611.346147,382.990938 C610.995884,383.297743 610.480213,383.322185 610.102502,383.049884 L556.946165,344.728267 L520.464075,345.799786 C519.912029,345.816 519.451362,345.381622 519.435148,344.829575 C519.431097,344.691668 519.455627,344.554415 519.507195,344.426449 L520.82589,341.154177 C520.936334,340.880105 521.162341,340.668913 521.443261,340.577276 Z" id="Path-4" fill="#44425F"></path>
        <path d="M506.414364,381.586703 C531.29108,373.47094 545.314603,370.021333 548.484934,371.237882 C551.419733,372.36405 564.837593,381.261399 588.738513,397.929927 L588.738518,397.929921 C589.191523,398.245847 589.302647,398.869189 588.986721,399.322195 C588.726045,399.695977 588.245634,399.84625 587.818424,399.68764 C560.902514,389.69458 546.123298,384.376258 543.480774,383.732675 C540.679676,383.050471 527.988256,384.014898 505.406513,386.625957 L505.406508,386.625913 C504.857903,386.689347 504.361747,386.296037 504.298313,385.747432 C504.277175,385.564618 504.306897,385.379516 504.384206,385.21251 L505.817051,382.117288 C505.933784,381.865115 506.150186,381.672888 506.414364,381.586703 Z" id="Path-4-Copy" fill="#44425F"></path>
        <path d="M494.044012,419.354094 C517.459848,407.345507 530.754854,401.950226 533.92903,403.16825 C536.859966,404.292936 541.224417,414.63211 547.02238,434.18577 L547.022418,434.185758 C547.179428,434.715277 546.877451,435.271819 546.347932,435.42883 C545.945513,435.548153 545.511405,435.403483 545.261018,435.066607 C536.308991,423.022325 531.523762,416.790359 530.905331,416.37071 C530.232685,415.914271 517.674809,418.596502 493.231705,424.417404 L493.231715,424.417444 C492.694432,424.545393 492.155155,424.213563 492.027206,423.67628 C491.974807,423.456246 491.998547,423.224948 492.09455,423.020147 L493.594876,419.819474 C493.688907,419.61888 493.846884,419.455189 494.044012,419.354094 Z" id="Path-4-Copy-2" fill="#44425F"></path>
        <path d="M464.769043,327.676758 C466.070098,320.809447 466.956091,315.867398 467.427022,312.85061 L467.427014,312.850609 C467.615922,311.640465 467.050212,310.437004 465.997873,309.810332 C359.187565,246.204365 286.279449,202.962548 247.273525,180.084882 C197.563856,150.92928 158.761879,128.710967 130.000107,112.134757 C88.2828363,88.0240712 63.0469376,73.9638992 54.2924107,69.9542411 C46.0086205,65.3939219 40.7412302,62.7581855 38.4902397,62.0470321 C35.1137541,60.9803019 32.8250987,60.6160491 30.5469802,62.0470321 C29.6167636,62.6313407 29.3154207,62.9050099 29.2239997,63.68054 C33.4199707,62.7313353 36.8015411,62.9756923 39.3687109,64.4136112 C205.426131,157.42542 321.123792,227.346021 387.343878,270.041479 C430.225662,297.689547 445.17041,314.791504 448.166016,320.442871 C451.161621,326.094238 453.821777,334.911133 453.821777,338.591797 C453.821777,340.839149 453.980486,348.033245 455.584961,359.591797 C455.584961,359.591797 455.584961,359.591797 455.584961,359.591797 L455.584961,359.591797 C455.656556,360.107565 456.132708,360.467638 456.648476,360.396043 C457.028395,360.343305 457.338498,360.06567 457.432761,359.693872 C460.783988,346.47559 463.229434,335.803223 464.769043,327.676758 Z" id="Path-5" fill="#9013FE" style="mix-blend-mode: overlay;"></path>
        <path d="M439.870282,399.247627 L439.870282,399.247627 C438.401615,397.301624 435.773551,396.64523 433.56236,397.672139 L141.547928,533.287832 C140.497326,533.869591 139.851997,534.632619 139.611942,535.576918 L142.24392,535.131326 C268.226667,477.077409 348.102078,440.395103 381.870154,425.084408 C412.766116,411.07595 428.989239,403.985533 430.539523,403.813157 C436.398371,402.986255 439.743299,402.493364 440.574306,402.334484 C442.230643,402.01781 442.350516,401.274171 440.933924,400.103568 L439.870282,399.247627 Z" id="Path-6" fill="#9013FE" style="mix-blend-mode: overlay;"></path>
    </g>
</svg>