<?xml version="1.0" encoding="UTF-8" standalone="no"?>
<svg
   xmlns:dc="http://purl.org/dc/elements/1.1/"
   xmlns:cc="http://creativecommons.org/ns#"
   xmlns:rdf="http://www.w3.org/1999/02/22-rdf-syntax-ns#"
   xmlns:svg="http://www.w3.org/2000/svg"
   xmlns="http://www.w3.org/2000/svg"
   xmlns:sodipodi="http://sodipodi.sourceforge.net/DTD/sodipodi-0.dtd"
   xmlns:inkscape="http://www.inkscape.org/namespaces/inkscape"
   inkscape:version="1.0 (1.0+r73+1)"
   sodipodi:docname="dragonfly-rainbow-150w.svg"
   id="svg1106"
   version="1.1"
   viewBox="0 0 150 152.09776"
   height="152.09776"
   width="150">
  <metadata
     id="metadata1110">
    <rdf:RDF>
      <cc:Work
         rdf:about="">
        <dc:format>image/svg+xml</dc:format>
        <dc:type
           rdf:resource="http://purl.org/dc/dcmitype/StillImage" />
        <dc:title>dragonfly-rainbow</dc:title>
      </cc:Work>
    </rdf:RDF>
  </metadata>
  <sodipodi:namedview
     inkscape:current-layer="svg1106"
     inkscape:window-maximized="1"
     inkscape:window-y="27"
     inkscape:window-x="58"
     inkscape:cy="356.77141"
     inkscape:cx="429"
     inkscape:zoom="1.0876494"
     fit-margin-bottom="0"
     fit-margin-right="0"
     fit-margin-left="0"
     fit-margin-top="0"
     showgrid="false"
     id="namedview1108"
     inkscape:window-height="1017"
     inkscape:window-width="1862"
     inkscape:pageshadow="2"
     inkscape:pageopacity="0"
     guidetolerance="10"
     gridtolerance="10"
     objecttolerance="10"
     borderopacity="1"
     bordercolor="#666666"
     pagecolor="#ffffff" />
  <!-- Generator: Sketch 51.3 (57544) - http://www.bohemiancoding.com/sketch -->
  <title
     id="title985">dragonfly-rainbow</title>
  <desc
     id="desc987">Created with Sketch.</desc>
  <defs
     id="defs1066">
    <radialGradient
       gradientUnits="userSpaceOnUse"
       id="radialGradient-1"
       gradientTransform="scale(0.56957037,1.7557093)"
       r="534.17731"
       fy="184.49359"
       fx="807.33826"
       cy="184.49359"
       cx="807.33826">
      <stop
         id="stop989"
         offset="0%"
         stop-color="#A564FA" />
      <stop
         id="stop991"
         offset="24.5111198%"
         stop-color="#62B7FF" />
      <stop
         id="stop993"
         offset="41.9778053%"
         stop-color="#88FF7F" />
      <stop
         id="stop995"
         offset="58.739699%"
         stop-color="#FFFC36" />
      <stop
         id="stop997"
         offset="75.0018748%"
         stop-color="#FFCA78" />
      <stop
         id="stop999"
         offset="100%"
         stop-color="#FF8080" />
    </radialGradient>
    <radialGradient
       gradientUnits="userSpaceOnUse"
       id="radialGradient-2"
       gradientTransform="scale(1.8926797,0.52835142)"
       r="283.55212"
       fy="616.19232"
       fx="253.40367"
       cy="616.19232"
       cx="253.40367">
      <stop
         id="stop1002"
         offset="0%"
         stop-color="#A564FA" />
      <stop
         id="stop1004"
         offset="21.6138712%"
         stop-color="#62B7FF" />
      <stop
         id="stop1006"
         offset="41.8910414%"
         stop-color="#88FF7F" />
      <stop
         id="stop1008"
         offset="65.0496561%"
         stop-color="#FFFC36" />
      <stop
         id="stop1010"
         offset="80.7109711%"
         stop-color="#FFCA78" />
      <stop
         id="stop1012"
         offset="100%"
         stop-color="#FF8080" />
    </radialGradient>
    <radialGradient
       gradientUnits="userSpaceOnUse"
       id="radialGradient-3"
       gradientTransform="scale(0.8396175,1.1910185)"
       r="389.5553"
       fy="59.966087"
       fx="360.55658"
       cy="59.966087"
       cx="360.55658">
      <stop
         id="stop1015"
         offset="0%"
         stop-color="#A3FFF7" />
      <stop
         id="stop1017"
         offset="100%"
         stop-color="#2787B2" />
    </radialGradient>
    <radialGradient
       gradientUnits="userSpaceOnUse"
       id="radialGradient-4"
       gradientTransform="scale(0.67606567,1.4791462)"
       r="122.57336"
       fy="74.692276"
       fx="304.905"
       cy="74.692276"
       cx="304.905">
      <stop
         id="stop1020"
         offset="0%"
         stop-color="#57538B" />
      <stop
         id="stop1022"
         offset="100%"
         stop-color="#44425F" />
    </radialGradient>
    <radialGradient
       gradientUnits="userSpaceOnUse"
       id="radialGradient-5"
       gradientTransform="scale(0.9473238,1.0556053)"
       r="123.3506"
       fy="181.88686"
       fx="182.66612"
       cy="181.88686"
       cx="182.66612">
      <stop
         id="stop1025"
         offset="0%"
         stop-color="#A3E9FF" />
      <stop
         id="stop1027"
         offset="100%"
         stop-color="#65C3D5" />
    </radialGradient>
    <linearGradient
       gradientUnits="userSpaceOnUse"
       gradientTransform="scale(0.57434822,1.741104)"
       id="linearGradient-6"
       y2="53.83707"
       x2="76.516861"
       y1="13.371927"
       x1="86.435898">
      <stop
         id="stop1030"
         offset="0%"
         stop-color="#80D3E7" />
      <stop
         id="stop1032"
         offset="100%"
         stop-color="#5CC9EC" />
    </linearGradient>
    <radialGradient
       gradientUnits="userSpaceOnUse"
       id="radialGradient-7"
       gradientTransform="scale(0.92967021,1.0756503)"
       r="85.831139"
       fy="111.3249"
       fx="94.24353"
       cy="111.3249"
       cx="94.24353">
      <stop
         id="stop1035"
         offset="0%"
         stop-color="#57538B" />
      <stop
         id="stop1037"
         offset="100%"
         stop-color="#44425F" />
    </radialGradient>
    <radialGradient
       gradientUnits="userSpaceOnUse"
       id="radialGradient-8"
       gradientTransform="scale(1.0911176,0.91649147)"
       r="582.97235"
       fy="304.70624"
       fx="402.15445"
       cy="304.70624"
       cx="402.15445">
      <stop
         id="stop1040"
         offset="0%"
         stop-color="#A564FA" />
      <stop
         id="stop1042"
         offset="24.1466546%"
         stop-color="#62B7FF" />
      <stop
         id="stop1044"
         offset="45.841836%"
         stop-color="#88FF7F" />
      <stop
         id="stop1046"
         offset="60.610354%"
         stop-color="#FFFC36" />
      <stop
         id="stop1048"
         offset="74.9039628%"
         stop-color="#FFCA78" />
      <stop
         id="stop1050"
         offset="100%"
         stop-color="#FF8080" />
    </radialGradient>
    <radialGradient
       gradientUnits="userSpaceOnUse"
       id="radialGradient-9"
       gradientTransform="scale(1.3876331,0.72065158)"
       r="487.23328"
       fy="466.53384"
       fx="311.21716"
       cy="466.53384"
       cx="311.21716">
      <stop
         id="stop1053"
         offset="0%"
         stop-color="#A564FA" />
      <stop
         id="stop1055"
         offset="28.1627643%"
         stop-color="#62B7FF" />
      <stop
         id="stop1057"
         offset="50.2941087%"
         stop-color="#88FF7F" />
      <stop
         id="stop1059"
         offset="64.8973129%"
         stop-color="#FFFC36" />
      <stop
         id="stop1061"
         offset="77.3685942%"
         stop-color="#FFCA78" />
      <stop
         id="stop1063"
         offset="100%"
         stop-color="#FF8080" />
    </radialGradient>
  </defs>
  <g
     transform="matrix(0.2094087,0,0,0.2094087,-6.0728523,-4.131339)"
     fill-rule="evenodd"
     fill="none"
     stroke-width="1"
     stroke="none"
     id="dragonfly-rainbow">
    <path
       style="fill:url(#radialGradient-1)"
       fill="url(#radialGradient-1)"
       fill-opacity="0.44"
       id="Path-Copy"
       d="m 448.39305,20 c 11.50826,-5.467127 25.30985,84.11287 41.40475,268.73998 l -49.58729,64.6054 C 422.31368,327.93796 408.38642,308.84669 398.42875,296.07155 383.49223,276.90884 378.01604,259.3136 383.90096,241.04772 389.78589,222.78184 434.10646,20 448.39305,20 Z" />
    <path
       style="fill:url(#radialGradient-2)"
       transform="rotate(24,399.19851,334.03797)"
       fill="url(#radialGradient-2)"
       fill-opacity="0.62"
       id="Path-2"
       d="m 467.39701,316.10532 c -89.28597,-1.47376 -134.71825,-1.47376 -136.29682,0 -2.36787,2.21064 37.97516,35.34145 42.85684,36.70581 4.88168,1.36436 30.81798,-2.9229 46.42556,-4.22875 10.40506,-0.87057 26.07653,-2.06696 47.01442,-3.58917 z" />
    <path
       transform="rotate(24,392.61692,313.51685)"
       style="mix-blend-mode:overlay"
       fill="#9013fe"
       id="Path-8"
       d="m 447.01172,310.42187 -82.79199,-0.75927 c -16.55111,0.17513 -25.21338,0.78597 -25.98682,1.83252 -0.29515,0.39937 5.45935,-0.8492 17.55322,-1.07325 14.01992,-0.25973 78.19629,2.09498 81.96192,3.09498 2.51041,0.66666 5.5983,1.95141 9.26367,3.85424 z" />
    <path
       style="mix-blend-mode:overlay"
       fill="#9013fe"
       id="Path-7"
       d="m 450.20684,19.754827 c 0,0 2.03344,-1.432895 7.79316,16.880915 1.13186,3.598921 3.36203,13.32288 6.6905,29.171875 5.822,26.077003 9.71814,51.710143 11.68841,76.899413 1.97026,25.18927 2.90202,61.27924 2.79526,108.26989 l -8.64837,42.9729 c 1.68601,-72.97738 1.68601,-124.84379 0,-155.59923 -1.33368,-24.32844 -5.63412,-61.472684 -10.60881,-85.957035 -4.45864,-21.944473 -9.71015,-32.638728 -9.71015,-32.638728 z" />
    <g
       transform="translate(399,255)"
       id="Torso">
      <path
         style="fill:url(#radialGradient-3)"
         fill-rule="nonzero"
         fill="url(#radialGradient-3)"
         id="Combined-Shape"
         d="m 161.8236,396.1391 c 0.5056,2.90709 0.55158,4.36064 0.13796,4.36064 -2.96557,0 -32.54855,-37.35924 -88.748957,-112.07771 -0.01498,0.092 -0.02997,0.18415 -0.04496,0.27634 l -4.4e-5,-1e-5 c -0.08865,0.5451 -0.602406,0.91513 -1.147504,0.82647 -0.337148,-0.0548 -0.622984,-0.27796 -0.758003,-0.59172 C 24.005205,179.11645 0.37676311,117.74095 0.37676311,104.80658 0.37676311,97.25689 26.456406,62.554541 78.615692,0.69953572 l 3.3e-5,2.76e-5 C 78.809728,0.4694978 79.09703,0.33904086 79.397926,0.34438418 L 116.31743,1 c 2.08642,4.1038132 20.01183,4.2353512 53.77624,0.3946139 1.09749,-0.1248334 2.08838,0.6636533 2.21322,1.7611413 0.0389,0.3421808 -0.0112,0.6886148 -0.14543,1.0057529 C 136.47959,88.445382 112.41348,145.8202 99.963113,176.28598 c 22.417767,75.64441 38.783327,132.14835 49.096677,169.51181 0.23474,-0.0267 0.47276,0.0306 0.67081,0.16372 99.6205,66.97246 159.70344,108.92637 180.24884,125.86173 -0.66008,0.13956 1.34037,-3.44052 6.00133,-10.74026 4.08837,-6.40298 12.25358,28.20492 9.90535,29.93574 -1.55393,1.14538 -62.90811,-30.48117 -184.06252,-94.87962 z" />
      <path
         style="mix-blend-mode:multiply"
         fill-rule="evenodd"
         fill="#53c2e6"
         id="Path-5"
         d="m 99.917017,176.33337 -20.26301,46.2122 -6.229344,65.80481 38.128157,50.36046 -19.911971,-30.06857 c -6.388302,-11.21006 -9.791614,-17.97402 -10.209936,-20.29189 -0.418322,-2.31787 0.276073,-23.75569 2.083186,-64.31347 11.723684,-29.2655 17.527781,-44.09539 17.412311,-44.48965 -0.11548,-0.39427 -0.45195,-1.46557 -1.009393,-3.21389 z" />
      <path
         style="mix-blend-mode:multiply"
         fill-rule="evenodd"
         fill="#53c2e6"
         id="Path-6"
         d="m 148.87177,345.21483 12.94662,51.13319 21.61272,11.11261 c -5.90708,-6.32773 -9.95752,-11.53726 -12.15134,-15.62861 -2.19381,-4.09135 -8.79066,-18.94412 -19.79055,-44.55831 z" />
      <path
         style="mix-blend-mode:multiply"
         fill-rule="evenodd"
         fill="#53c2e6"
         id="path1075"
         d="m 332.61734,466.49342 c -1.95163,3.1123 -2.8332,4.89606 -2.64471,5.35127 0.47964,1.03916 8.55321,9.64662 9.2308,8.91762 0.45173,-0.48599 -0.45714,-7.24844 -2.72661,-20.28733 -0.29803,0.34888 -0.6876,0.89945 -1.16869,1.65173 -0.4811,0.75227 -1.37803,2.20784 -2.69079,4.36671 z" />
      <path
         style="mix-blend-mode:multiply"
         fill-rule="evenodd"
         fill="#53c2e6"
         id="path1077"
         d="M 76.144224,3.5968032 169.5,4 c -5.43816,14.33515 -8.90866,22.534036 -10.41149,24.596657 -2.25425,3.093933 -3.88677,6.84033 -7.5729,11.353066 -6.27619,7.683617 -10.78476,9.821973 -18.97408,12.298947 -20.43417,6.180595 -52.699122,-10.698105 -58.886112,-14.252958 -3.016198,-1.733015 -9.01347,-4.866033 -17.991816,-9.399055 1.806076,-2.339723 3.808619,-4.920187 6.007629,-7.74139 2.159399,-2.770383 6.98373,-8.523205 14.472993,-17.2584638 z" />
    </g>
    <g
       transform="translate(454,60)"
       id="Head2">
      <g
         id="Head">
        <path
           fill="#44425f"
           id="Path-3"
           d="m 97.371363,89.030541 c 6.934567,-2.476634 14.815387,-2.476634 23.642457,0 12.18089,3.417622 41.41273,15.995099 52.82998,20.972819 11.15346,7.53799 6.16216,50.87729 2.50701,88.30927 -4.99888,10.53752 -11.92557,18.11215 -20.78009,22.72389 L 115.52639,201.76785 89.577993,95.815111 Z" />
        <path
           style="fill:url(#radialGradient-4)"
           fill="url(#radialGradient-4)"
           id="Path-10-Copy"
           d="m 139.8817,101.02458 c 2.34586,0.24371 18.32427,5.3784 20.20458,7.34026 1.88032,1.96186 10.93701,6.12586 13.1705,11.90056 2.23349,5.7747 3.82615,10.10987 3.82615,16.04867 0,5.4528 0.42973,20.75571 0,26.83732 -0.35011,4.95472 -4.60729,20.18997 -6.09896,21.7807 -1.49168,1.59073 -9.40223,10.00784 -10.89769,8.34042 -1.49546,-1.66742 -2.61848,-7.63687 -0.45854,-15.55612 2.15993,-7.91925 7.14096,-30.40855 3.85307,-45.50898 -1.69062,-7.76455 -1.3763,-7.59903 -6.80149,-15.09869 -5.12567,-7.08561 -21.30851,-10.28892 -21.59226,-11.43432 -0.58406,-2.35774 1.85463,-4.95525 4.79464,-4.64982 z" />
        <path
           transform="rotate(42,133.01826,69.821995)"
           fill="#7ad0e3"
           id="Path-4-Copy"
           d="m 121.49582,125.13084 c -2.79911,-20.76733 -4.58413,-37.360094 -5.35504,-49.778287 -1.15637,-18.627291 -2.32458,-29.563807 0,-34.558353 1.02845,-2.209712 8.75511,-9.907736 15.19263,-14.302992 3.78412,-2.583636 9.62532,-6.237142 17.52358,-10.960519 l 1e-5,10e-6 c 0.47399,-0.283457 1.08802,-0.129002 1.37147,0.344985 0.18591,0.310875 0.18918,0.697982 0.009,1.011947 -15.00033,26.071043 -23.24093,40.937261 -24.7218,44.598655 -2.3138,5.720795 -5.93905,20.863547 -2.67411,61.628804 0.11606,1.44915 -0.33236,2.12107 -1.34527,2.01575 z" />
        <path
           style="fill:url(#radialGradient-5)"
           fill="url(#radialGradient-5)"
           id="Path"
           d="m 45.106691,100.58383 c 16.477546,-8.193491 50.589214,-14.223753 57.398469,-14.223753 6.85819,0.432922 42.84829,17.821253 45.52001,20.003533 9.73145,7.94874 15.31983,14.6882 16.00627,48.55369 0.68644,33.8655 -13.47325,99.82746 -21.29114,102.15517 -1.11698,0.33257 -8.96424,4.694 -13.03018,3.53627 -9.61071,-2.73655 -41.41783,-17.98802 -95.421363,-45.7544 v 0 c -2.227724,-1.1454 -3.877301,-3.16742 -4.55203,-5.57977 L 7.8390227,130.98382 c -1.0096843,-3.60992 0.3238041,-7.46766 3.3472423,-9.68347 10.891687,-7.98226 22.198496,-14.88776 33.920426,-20.71652 z" />
        <path
           style="mix-blend-mode:multiply"
           fill="#53c2e6"
           id="Path-9"
           d="m 82.058828,89.917793 c -17.510631,5.542285 -28.629705,9.683938 -33.357223,12.424957 -4.727519,2.74102 -8.797635,7.40608 -12.21035,13.99517 l -1.191536,19.22699 -27.804729,1.36223 2.774176,-11.75296 c -1.7116496,-0.60729 -1.7116496,-1.58892 0,-2.94487 10.073565,-7.98016 26.121436,-17.04759 31.902189,-19.88656 4.72344,-2.31971 13.13065,-6.313007 22.977266,-9.123788 3.517,-1.003951 9.153735,-2.104341 16.910207,-3.301169 z" />
        <path
           fill="#44425f"
           id="path1085"
           d="m 5.4361667,121.43446 c 1.8550352,-2.17208 26.2857523,-6.57188 30.0604603,-5.63313 3.774708,0.93875 44.912374,35.46417 47.031451,40.33109 1.412718,3.24461 3.000586,31.59314 4.763604,85.04559 l 1.957768,1.38293 c -3.666212,3.51591 -5.906669,5.16553 -6.721372,4.94885 C 41.272422,239.82111 23.267391,227.29699 19.724533,221.85187 11.943761,207.01079 -1.3493903,142.56306 0.51396648,136.81185 2.3773233,131.06063 3.5811314,123.60653 5.4361667,121.43446 Z" />
        <path
           style="fill:url(#linearGradient-6)"
           fill="url(#linearGradient-6)"
           id="Path-4"
           d="M 32.907602,110.50276 C 30.108484,89.735424 28.323468,73.142661 27.552556,60.724467 c -1.156368,-18.62729 -2.324579,-29.563806 0,-34.558352 1.028453,-2.209713 8.755111,-9.907737 15.192629,-14.302992 C 49.182703,7.4678669 61.118052,-0.57991824 62.461908,0.54181304 63.805763,1.6635443 43.009273,30.44942 40.695477,36.170215 38.381681,41.89101 30.987926,67.721748 34.252863,108.487 c 0.116065,1.44915 -0.332356,2.12107 -1.345261,2.01576 z" />
      </g>
      <path
         style="fill:url(#radialGradient-7)"
         fill="url(#radialGradient-7)"
         id="Path-10"
         d="m 8.6331071,127.20227 c -2.6773869,1.25241 -3.4299362,4.73493 -1.7149681,6.45509 0.8331415,0.83566 12.294805,-3.43364 20.337723,0 8.512909,3.63428 16.644023,12.63683 22.092203,18.42161 10.595571,11.25021 13.482618,22.79048 15.709907,30.69105 2.227289,7.90057 4.807779,21.41527 6.948423,22.07431 2.140643,0.65904 4.265242,-4.41807 4.724569,-6.54987 0.459328,-2.13179 -1.960736,-32.57183 -4.212503,-36.99917 -2.763908,-5.43429 -10.900888,-12.08796 -14.793777,-15.89685 -4.480937,-4.38424 -9.817597,-9.59807 -14.706264,-13.39762 -6.500081,-5.05197 -10.663914,-8.19964 -13.286089,-8.91285 -2.622175,-0.71321 -18.962907,3.11499 -21.0992239,4.1143 z" />
    </g>
    <g
       fill-opacity="0.44"
       transform="translate(29,61)"
       id="WINGS">
      <path
         style="fill:url(#radialGradient-8)"
         fill="url(#radialGradient-8)"
         id="path1091"
         d="m 6.0249161,0.25293065 c 9.5243959,0 153.7820239,83.16235035 432.7728839,249.48704935 -12.17586,63.43367 -24.62579,101.24761 -37.34977,113.44183 -4.57628,3.80082 -158.94879,14.32275 -195.66376,-9.2749 C 169.06931,330.30926 82.895081,154.02977 42.664982,82.806406 2.4348845,11.583037 -8.2616782,0.25293065 6.0249161,0.25293065 Z" />
      <path
         style="fill:url(#radialGradient-9)"
         fill="url(#radialGradient-9)"
         id="path1093"
         d="m 409.7401,337.20714 5.01217,4.41606 c 1.58029,1.39235 1.81018,3.77158 0.5257,5.44072 -29.37745,38.17524 -49.91358,63.91997 -61.60837,77.23421 -35.84343,40.80688 -62.66522,63.60905 -69.48606,67.86783 -10.00327,6.24582 -66.79175,2.12835 -170.36541,-12.3524 v 0 c -2.18786,-0.30589 -3.7135,-2.32747 -3.40761,-4.51533 0.19199,-1.37325 1.08149,-2.54911 2.3507,-3.10749 70.82957,-31.16056 121.60851,-54.4389 152.33684,-69.835 32.14951,-16.10818 78.93304,-38.03899 140.35057,-65.79245 v 0 c 1.43271,-0.64741 3.11182,-0.3955 4.29147,0.64385 z" />
    </g>
    <path
       fill="#44425f"
       id="path1096"
       d="m 521.44326,340.57728 c 24.85868,-8.10901 38.87257,-11.55548 42.04167,-10.3394 2.99526,1.14937 18.98011,18.26335 47.95458,51.34196 l -4e-5,3e-5 c 0.36389,0.41542 0.3221,1.04718 -0.0933,1.41107 -0.35027,0.3068 -0.86594,0.33124 -1.24365,0.0589 l -53.15634,-38.32161 -36.48209,1.07152 c -0.55204,0.0162 -1.01271,-0.41817 -1.02892,-0.97022 -0.004,-0.1379 0.0205,-0.27516 0.072,-0.40312 l 1.31869,-3.27227 c 0.11044,-0.27407 0.33645,-0.48527 0.61737,-0.5769 z" />
    <path
       fill="#44425f"
       id="path1098"
       d="m 506.41436,381.5867 c 24.87672,-8.11576 38.90024,-11.56537 42.07057,-10.34882 2.9348,1.12617 16.35266,10.02352 40.25358,26.69205 l 10e-6,-1e-5 c 0.453,0.31593 0.56413,0.93927 0.2482,1.39228 -0.26068,0.37378 -0.74109,0.52405 -1.1683,0.36544 -26.91591,-9.99306 -41.69512,-15.31138 -44.33765,-15.95497 -2.80109,-0.6822 -15.49251,0.28223 -38.07426,2.89329 v -5e-5 c -0.54861,0.0634 -1.04476,-0.32987 -1.1082,-0.87848 -0.0211,-0.18281 0.009,-0.36791 0.0859,-0.53492 l 1.43284,-3.09522 c 0.11673,-0.25218 0.33314,-0.4444 0.59731,-0.53059 z" />
    <path
       fill="#44425f"
       id="Path-4-Copy-2"
       d="m 494.04401,419.35409 c 23.41584,-12.00858 36.71084,-17.40386 39.88502,-16.18584 2.93094,1.12469 7.29539,11.46386 13.09335,31.01752 l 4e-5,-10e-6 c 0.15701,0.52952 -0.14497,1.08606 -0.67449,1.24307 -0.40242,0.11932 -0.83653,-0.0254 -1.08691,-0.36222 -8.95203,-12.04428 -13.73726,-18.27625 -14.35569,-18.6959 -0.67265,-0.45644 -13.23052,2.22579 -37.67363,8.04669 l 1e-5,4e-5 c -0.53728,0.12795 -1.07656,-0.20388 -1.2045,-0.74116 -0.0524,-0.22003 -0.0287,-0.45133 0.0673,-0.65613 l 1.50033,-3.20068 c 0.094,-0.20059 0.252,-0.36428 0.44913,-0.46538 z" />
    <path
       style="mix-blend-mode:overlay"
       fill="#9013fe"
       id="path1101"
       d="m 464.76904,327.67676 c 1.30106,-6.86731 2.18705,-11.80936 2.65798,-14.82615 h -1e-5 c 0.18891,-1.21015 -0.3768,-2.41361 -1.42914,-3.04028 C 359.18756,246.20436 286.27945,202.96255 247.27352,180.08488 197.56386,150.92928 158.76188,128.71097 130.00011,112.13476 88.282836,88.024071 63.046938,73.963899 54.292411,69.954241 46.00862,65.393922 40.74123,62.758186 38.49024,62.047032 c -3.376486,-1.06673 -5.665141,-1.430983 -7.94326,0 -0.930216,0.584309 -1.231559,0.857978 -1.32298,1.633508 4.195971,-0.949205 7.577541,-0.704848 10.144711,0.733071 C 205.42613,157.42542 321.12379,227.34602 387.34388,270.04148 c 42.88178,27.64807 57.82653,44.75002 60.82214,50.40139 2.9956,5.65137 5.65576,14.46826 5.65576,18.14893 0,2.24735 0.15871,9.44145 1.76318,21 0,0 0,0 0,0 v 0 c 0.0716,0.51577 0.54775,0.87584 1.06352,0.80424 0.37991,-0.0527 0.69002,-0.33037 0.78428,-0.70217 3.35123,-13.21828 5.79667,-23.89065 7.33628,-32.01711 z" />
    <path
       style="mix-blend-mode:overlay"
       fill="#9013fe"
       id="path1103"
       d="m 439.87028,399.24763 v 0 c -1.46867,-1.94601 -4.09673,-2.6024 -6.30792,-1.57549 L 141.54793,533.28783 c -1.0506,0.58176 -1.69593,1.34479 -1.93599,2.28909 l 2.63198,-0.44559 c 125.98275,-58.05392 205.85816,-94.73623 239.62623,-110.04692 30.89597,-14.00846 47.11909,-21.09888 48.66937,-21.27125 5.85885,-0.8269 9.20378,-1.3198 10.03479,-1.47868 1.65633,-0.31667 1.77621,-1.06031 0.35961,-2.23091 z" />
  </g>
</svg>
